<?xml version="1.0" encoding="utf-8"?>
<!-- Generator: Adobe Illustrator 26.0.1, SVG Export Plug-In . SVG Version: 6.00 Build 0)  -->
<svg version="1.1" xmlns="http://www.w3.org/2000/svg" xmlns:xlink="http://www.w3.org/1999/xlink" x="0px" y="0px"
	 viewBox="0 0 750 500" style="enable-background:new 0 0 750 500;" xml:space="preserve">
<style type="text/css">
	.st0{clip-path:url(#SVGID_00000139987813799367535610000010959216254447348108_);fill:#FFE4DD;}
	.st1{clip-path:url(#SVGID_00000139987813799367535610000010959216254447348108_);fill:#FFB8A4;}
	.st2{clip-path:url(#SVGID_00000139987813799367535610000010959216254447348108_);}
	.st3{fill:#FFE4DD;}
	.st4{fill:#FC981F;}
	.st5{clip-path:url(#SVGID_00000139987813799367535610000010959216254447348108_);fill:#18A795;}
	.st6{clip-path:url(#SVGID_00000139987813799367535610000010959216254447348108_);fill:#FC981F;}
	.st7{fill:#FC5B23;}
	.st8{clip-path:url(#SVGID_00000139987813799367535610000010959216254447348108_);fill:#011D44;}
	.st9{clip-path:url(#SVGID_00000139987813799367535610000010959216254447348108_);fill:#FC5B23;}
	.st10{fill:#011D44;}
	.st11{opacity:0.38;clip-path:url(#SVGID_00000139987813799367535610000010959216254447348108_);fill:#FFE4DD;}
	.st12{opacity:0.5;clip-path:url(#SVGID_00000139987813799367535610000010959216254447348108_);fill:#FFE4DD;}
	.st13{opacity:0.2;clip-path:url(#SVGID_00000139987813799367535610000010959216254447348108_);fill:#FC981F;}
	.st14{fill:#FFFFFF;}
</style>
<g id="BACKGROUND">
</g>
<g id="OBJECTS">
	<g>
		<defs>
			<rect id="SVGID_1_" width="750" height="500"/>
		</defs>
		<clipPath id="SVGID_00000159468142784066869070000008362881074670652839_">
			<use xlink:href="#SVGID_1_"  style="overflow:visible;"/>
		</clipPath>
		<path style="clip-path:url(#SVGID_00000159468142784066869070000008362881074670652839_);fill:#FFE4DD;" d="M431,0
			c19,43,97.1,63.9,180,42c106-28,123,44,130,109c6.8,63.2-49,134,9,172V0L431,0z"/>
		<path style="clip-path:url(#SVGID_00000159468142784066869070000008362881074670652839_);fill:#FFB8A4;" d="M23.7,412.9
			c-8.6,22-40.4,19-44.1-2.5c-3.7-21.6,26.1-57.4,40.9-55.5S30.1,396.3,23.7,412.9z"/>
		<g style="clip-path:url(#SVGID_00000159468142784066869070000008362881074670652839_);">
			<g>
				<path class="st3" d="M106.7,222.7c-11.2-8.9-20.6-20.7-25.8-34.1c-2.5-6.5-4.1-13.3-4.3-20.3c-0.1-3.4,0.2-6.9,0.9-10.3
					c0.6-3,1.4-6.1,2.9-8.8c2.6-4.6,7.2-7.9,11.7-10.4c4.5-2.4,9.4-4.2,14.3-5.5c1.7-0.4,3.5-0.8,5.3-1c2.3-0.3,4.6-0.1,6.9,0.1
					c6.6,0.4,13.2,1.6,19.6,3.6c12.3,3.9,23.5,10.7,33.1,19.3c10,9,18.3,19.7,25.4,31.2c4,6.4,8.1,13.1,10.7,20.2
					c2.6,7.1,2.9,15.2-0.6,22.1c-5.1,10.3-16.8,17.6-28.3,17.3c-10.2-0.3-20.5-2.5-30.4-5.1c-11.9-3.2-23.9-7.3-34.6-13.7
					C111.2,225.9,108.9,224.4,106.7,222.7c-0.8-0.6-1.8,0.5-1.1,1.1c9.8,7.7,21.8,12.5,33.5,16.2c11.1,3.5,22.7,6.2,34.3,7.4
					c3.5,0.3,7.1,0.6,10.5,0c7-1.2,13.6-4.9,18.5-9.9c5.2-5.2,8.2-11.9,8.4-19.3c0.2-7.9-3.1-15.1-6.8-21.9
					c-6.9-12.6-14.9-24.7-24.8-35.2c-9.1-9.6-19.8-17.8-31.9-23.2c-6.1-2.7-12.5-4.7-19.1-5.8c-3.4-0.6-6.9-1-10.4-1.2
					c-2.2-0.1-4.4-0.2-6.6,0.1c-4.4,0.6-8.8,1.9-13,3.5c-5.1,2-10.2,4.6-14.3,8.3c-2,1.8-3.7,3.8-5,6.1c-1.5,2.8-2.3,5.9-2.9,9
					c-1.4,6.9-1.1,14,0.3,20.9c3,14.4,11.1,27.5,21.3,37.9c2.5,2.6,5.2,5,8,7.2C106.4,224.3,107.5,223.3,106.7,222.7z"/>
			</g>
		</g>
		<path style="clip-path:url(#SVGID_00000159468142784066869070000008362881074670652839_);fill:#FFE4DD;" d="M0.8,328.6
			c27.9-45.7,51-89.7,40.6-116.8C30.5,183.1,0,170.4,0,170.4L0.8,328.6z"/>
		<g style="clip-path:url(#SVGID_00000159468142784066869070000008362881074670652839_);">
			<g>
				<g>
					<path class="st4" d="M45.3,318c0-0.2,0.1-0.4,0.2-0.6c0,0,0,0,0,0c0-0.1,0-0.1,0,0c0,0,0-0.1,0.1-0.1c0-0.1,0.1-0.2,0.1-0.3
						c0.1-0.2,0.2-0.4,0.3-0.5c0,0,0.1-0.1,0.1-0.1c-0.1,0.1-0.1,0.1,0,0c0.1-0.1,0.1-0.2,0.2-0.2c0.1-0.1,0.3-0.3,0.4-0.4
						c0,0,0.1-0.1,0.1-0.1c0.1-0.1-0.1,0.1,0,0c0.1-0.1,0.2-0.1,0.2-0.2c0.2-0.1,0.3-0.2,0.5-0.3c0,0,0.1,0,0.1-0.1
						c0.1,0,0.2-0.1,0,0c0.1-0.1,0.2-0.1,0.3-0.1c0.4-0.1,0.7-0.5,0.5-0.9c-0.1-0.4-0.5-0.7-0.9-0.5c-1.8,0.6-3.3,2.2-3.8,4.1
						c-0.1,0.4,0.1,0.8,0.5,0.9C44.7,318.6,45.2,318.4,45.3,318L45.3,318z"/>
				</g>
			</g>
			<g>
				<g>
					<path class="st4" d="M65.5,322.8c1.5-1.5,3.1-3,4.6-4.5c0.3-0.3,0.3-0.8,0-1.1c-0.3-0.3-0.8-0.3-1.1,0c-1.5,1.5-3.1,3-4.6,4.5
						c-0.3,0.3-0.3,0.8,0,1.1C64.8,323.1,65.2,323.1,65.5,322.8L65.5,322.8z"/>
				</g>
			</g>
			<g>
				<g>
					<path class="st4" d="M69.1,279.8c1.5-1.2,3-2.4,4.5-3.6c0.3-0.2,0.3-0.8,0-1.1c-0.3-0.3-0.7-0.3-1.1,0c-1.5,1.2-3,2.4-4.5,3.6
						c-0.3,0.2-0.3,0.8,0,1.1C68.3,280.1,68.7,280,69.1,279.8L69.1,279.8z"/>
				</g>
			</g>
			<g>
				<g>
					<path class="st4" d="M69.1,300.8c1.5-1.2,3-2.4,4.5-3.6c0.3-0.2,0.3-0.8,0-1.1c-0.3-0.3-0.7-0.3-1.1,0c-1.5,1.2-3,2.4-4.5,3.6
						c-0.3,0.2-0.3,0.8,0,1.1C68.3,301.1,68.7,301,69.1,300.8L69.1,300.8z"/>
				</g>
			</g>
		</g>
		<path style="clip-path:url(#SVGID_00000159468142784066869070000008362881074670652839_);fill:#18A795;" d="M-11,115
			C60.2,115,1.7-12,90-12c22,0,84,31,80-16.7C168.9-41.1-12-29-12-29S-49,115-11,115z"/>
		<path style="clip-path:url(#SVGID_00000159468142784066869070000008362881074670652839_);fill:#FFE4DD;" d="M772,427.6
			c-28-63-65.3-101.3-52-168c3.5-17.3,20-48,52-48V427.6z"/>
		<path style="clip-path:url(#SVGID_00000159468142784066869070000008362881074670652839_);fill:#FC981F;" d="M659,57
			c-28-2-27,26-1,39c16.8,8.4,49,30,55,14S690.1,59.2,659,57z"/>
		<g style="clip-path:url(#SVGID_00000159468142784066869070000008362881074670652839_);">
			<g>
				<path class="st4" d="M-23.8,122.8c7.8-6.7,19.2-7.3,28.4-3.6c9.9,3.9,16.9,13,20.6,22.8c4.4,11.6,4.3,24.2,2.5,36.3
					c-1.8,12.6-4.9,25.1-8.4,37.3c-3.4,12-7.4,23.9-12,35.5c-2.4,6-4.9,11.9-7.6,17.7c-1.3,2.8-2.6,5.6-4,8.4
					c-1.3,2.7-2.5,5.6-4.2,8.1c-0.6,1-1.7,2-3,1.5c-1.2-0.4-2-1.6-2.5-2.7c-1.3-2.5-1.7-5.5-2.4-8.2c-1.5-6.4-2.9-12.8-4.2-19.3
					c-2.5-12.8-4.4-25.8-5.8-38.8c-2.7-26-3.3-52.2-1.6-78.2c0.2-3.2,0.5-6.4,0.7-9.6c0.1-1-1.4-1-1.5,0
					c-2.3,27.3-2.2,54.8,0.3,82.1c1.3,13.6,3.1,27.2,5.6,40.6c1.2,6.7,2.6,13.4,4.1,20c0.7,3.2,1.4,6.6,2.4,9.7
					c0.6,2,1.7,4.2,3.5,5.3c1.9,1.2,4,0.4,5.3-1.3c0.8-1.1,1.4-2.4,2-3.6c0.8-1.5,1.5-3,2.3-4.5c2.9-5.9,5.7-12,8.3-18.1
					c5.1-12,9.6-24.2,13.4-36.6c3.9-12.7,7.3-25.7,9.6-38.9c2.3-12.6,3.4-25.7,0-38.2c-2.8-10.3-8.8-20.3-18-26
					c-8.5-5.3-19.7-6.6-28.9-2.5c-2.2,1-4.3,2.3-6.2,3.9C-25.6,122.4-24.5,123.5-23.8,122.8L-23.8,122.8z"/>
			</g>
		</g>
		<g style="clip-path:url(#SVGID_00000159468142784066869070000008362881074670652839_);">
			<g>
				<path class="st7" d="M786.5,34.3c-11.1,5.5-22.9,9.3-35,12c-5.8,1.3-11.7,2.4-17.7,3.4c-6.1,1-12.2,1.9-18.4,1.9
					c-5.9,0-11.9-0.9-17.2-3.7c-4.4-2.3-8.2-5.9-10.6-10.2c-2.5-4.6-3.2-9.8-1.3-14.8c1.1-2.9,2.7-5.5,4.4-8
					c1.8-2.8,3.6-5.5,5.4-8.3c8-12.4,16-24.7,24.1-37.1c0.5-0.8-0.8-1.6-1.3-0.8C711.4-19.6,703.9-8,696.4,3.6
					c-1.8,2.8-3.7,5.7-5.5,8.5c-1.7,2.7-3.5,5.3-4.9,8.2c-2.3,4.8-2.7,10-0.9,15c1.7,4.6,5,8.6,8.9,11.6c4.5,3.3,9.8,5.1,15.3,5.8
					c6.2,0.8,12.5,0.3,18.7-0.5c6.2-0.9,12.4-2,18.6-3.2c14-2.9,27.9-6.9,40.7-13.4C788.1,35.2,787.4,33.9,786.5,34.3L786.5,34.3z"
					/>
			</g>
		</g>
		<path style="clip-path:url(#SVGID_00000159468142784066869070000008362881074670652839_);fill:#011D44;" d="M629,51
			c-5.3,3.6,0,13,8,7C642.1,54.2,635,47,629,51z"/>
		<path style="clip-path:url(#SVGID_00000159468142784066869070000008362881074670652839_);fill:#011D44;" d="M15.4,374.2
			c-3.6,2.4,0,8.8,5.4,4.8C24.3,376.4,19.4,371.5,15.4,374.2z"/>
		<path style="clip-path:url(#SVGID_00000159468142784066869070000008362881074670652839_);fill:#FC5B23;" d="M544-17
			c-17.9,3.9,16,43,40,34S567-22,544-17z"/>
		<path style="clip-path:url(#SVGID_00000159468142784066869070000008362881074670652839_);fill:#FC981F;" d="M236-9
			c-3.3,26.4,113,41,148,1C405.3-32.3,236-9,236-9z"/>
		<g style="clip-path:url(#SVGID_00000159468142784066869070000008362881074670652839_);">
			<g>
				<g>
					<path class="st4" d="M319.9,40c1.1,0.4,2.3,0.8,3.4,1.2c0.4,0.1,0.8-0.1,0.9-0.5c0.1-0.4-0.1-0.8-0.5-0.9
						c-1.1-0.4-2.3-0.8-3.4-1.2c-0.4-0.1-0.8,0.1-0.9,0.5C319.3,39.5,319.5,39.9,319.9,40L319.9,40z"/>
				</g>
			</g>
			<g>
				<g>
					<path class="st4" d="M405.9,23.5c1.5,0.4,3,0.8,4.5,1.1c0.4,0.1,0.8-0.1,0.9-0.5c0.1-0.4-0.1-0.8-0.5-0.9
						c-1.5-0.4-3-0.8-4.5-1.1c-0.4-0.1-0.8,0.1-0.9,0.5C405.3,23,405.5,23.4,405.9,23.5L405.9,23.5z"/>
				</g>
			</g>
			<g>
				<g>
					<path class="st4" d="M470.9,60.6c1.9,0.4,3.8,0.8,5.7,1.2c0.4,0.1,0.8-0.1,0.9-0.5c0.1-0.4-0.1-0.8-0.5-0.9
						c-1.9-0.4-3.8-0.8-5.7-1.2c-0.4-0.1-0.8,0.1-0.9,0.5C470.2,60.1,470.5,60.6,470.9,60.6L470.9,60.6z"/>
				</g>
			</g>
		</g>
		<path style="clip-path:url(#SVGID_00000159468142784066869070000008362881074670652839_);fill:#18A795;" d="M803,454
			c13.5-29-50.3-52.5-64.7-36c-14.4,16.5,12.4,32.5,22.7,37C784.5,465.3,798.5,463.7,803,454z"/>
		<g style="clip-path:url(#SVGID_00000159468142784066869070000008362881074670652839_);">
			<g>
				<g>
					<path class="st10" d="M229.4,35.5c-1.5-1.4-3-2.9-4.5-4.3c-0.3-0.2-0.5-0.5-0.8-0.7c-0.3-0.3-0.8-0.3-1.1,0
						c-0.3,0.3-0.3,0.8,0,1.1c0.9,0.8,1.8,1.6,2.6,2.4c0.9,0.8,1.8,1.7,2.6,2.5c0.3,0.3,0.8,0.3,1.1,0
						C229.6,36.3,229.7,35.8,229.4,35.5L229.4,35.5z"/>
				</g>
			</g>
			<g>
				<g>
					<path class="st10" d="M215-0.7c-1.3-1.2-2.6-2.5-3.9-3.7c-0.3-0.3-0.8-0.3-1.1,0c-0.3,0.3-0.3,0.8,0,1.1
						c1.3,1.2,2.6,2.5,3.9,3.7c0.3,0.3,0.8,0.3,1.1,0C215.2,0,215.3-0.5,215-0.7L215-0.7z"/>
				</g>
			</g>
			<g>
				<g>
					<path class="st10" d="M217.1,15.8c-1.3-1.3-2.6-2.5-3.9-3.8c-0.3-0.3-0.8-0.3-1.1,0c-0.3,0.3-0.3,0.8,0,1.1
						c1.3,1.3,2.6,2.5,3.9,3.8c0.3,0.3,0.8,0.3,1.1,0C217.4,16.6,217.4,16.1,217.1,15.8L217.1,15.8z"/>
				</g>
			</g>
			<g>
				<g>
					<path class="st10" d="M243,39.6c-1.3-1.2-2.6-2.5-3.9-3.7c-0.3-0.3-0.8-0.3-1.1,0c-0.3,0.3-0.3,0.8,0,1.1
						c1.3,1.2,2.6,2.5,3.9,3.7c0.3,0.3,0.8,0.3,1.1,0C243.3,40.3,243.3,39.8,243,39.6L243,39.6z"/>
				</g>
			</g>
			<g>
				<g>
					<path class="st10" d="M245.1,56.1c-1.3-1.3-2.6-2.5-3.9-3.8c-0.3-0.3-0.8-0.3-1.1,0c-0.3,0.3-0.3,0.8,0,1.1
						c1.3,1.3,2.6,2.5,3.9,3.8c0.3,0.3,0.8,0.3,1.1,0C245.4,56.9,245.4,56.4,245.1,56.1L245.1,56.1z"/>
				</g>
			</g>
		</g>
		<path style="opacity:0.38;clip-path:url(#SVGID_00000159468142784066869070000008362881074670652839_);fill:#FFE4DD;" d="M504,101
			c-38.4,4.4-51,77,40,63S565,94,504,101z"/>
		<path style="opacity:0.5;clip-path:url(#SVGID_00000159468142784066869070000008362881074670652839_);fill:#FFE4DD;" d="
			M314.3,443.8c-10.4,1.2-12,27.1,10.9,17.1C329.5,459,330.9,441.9,314.3,443.8z"/>
		<path style="opacity:0.2;clip-path:url(#SVGID_00000159468142784066869070000008362881074670652839_);fill:#FC981F;" d="
			M79.7,133.8c-18.1,2.1-20.9,47.1,18.8,29.7C106.1,160.1,108.4,130.5,79.7,133.8z"/>
		<g style="clip-path:url(#SVGID_00000159468142784066869070000008362881074670652839_);">
			<g>
				<g>
					<path class="st7" d="M690.5,160.9c-1.2,2-2.4,3.9-3.6,5.9c-0.5,0.8,0.8,1.6,1.3,0.8c1.2-2,2.4-3.9,3.6-5.9
						C692.3,160.8,691,160,690.5,160.9L690.5,160.9z"/>
				</g>
			</g>
			<g>
				<g>
					<path class="st7" d="M690.4,176.8c-1.3,1.6-2.7,3.3-4,4.9c-0.3,0.3-0.3,0.8,0,1.1c0.3,0.3,0.8,0.3,1.1,0c1.3-1.6,2.7-3.3,4-4.9
						c0.3-0.3,0.3-0.8,0-1.1C691.2,176.5,690.7,176.4,690.4,176.8L690.4,176.8z"/>
				</g>
			</g>
			<g>
				<g>
					<path class="st7" d="M686.6,192.2c-1.4,1.6-2.8,3.2-4.1,4.8c-0.3,0.3-0.3,0.8,0,1.1c0.3,0.3,0.8,0.3,1.1,0
						c1.4-1.6,2.8-3.2,4.1-4.8c0.3-0.3,0.3-0.8,0-1.1C687.4,191.9,686.9,191.9,686.6,192.2L686.6,192.2z"/>
				</g>
			</g>
		</g>
		<g style="clip-path:url(#SVGID_00000159468142784066869070000008362881074670652839_);">
			<g>
				<path class="st3" d="M622.3,320.6c5.8,6.6,15.2,8.5,23.6,8c8.2-0.4,16.3-3.1,23.1-7.6c6.6-4.4,12-10.7,14.5-18.3
					c2.4-7.4,1.6-15.5-1.6-22.5c-3.6-7.9-10.3-14.5-18.6-17.3c-0.9-0.3-1.3,1.1-0.4,1.4c14,4.8,23.1,21,19.8,35.5
					c-3.5,15.4-18.9,25.2-33.8,27c-8.9,1.1-19.3-0.2-25.6-7.3C622.8,318.8,621.7,319.9,622.3,320.6L622.3,320.6z"/>
			</g>
		</g>
		<g style="clip-path:url(#SVGID_00000159468142784066869070000008362881074670652839_);">
			<g>
				<path class="st3" d="M142.7,32c-5.8-6.6-15.2-8.5-23.6-8c-8.2,0.4-16.3,3.1-23.1,7.6C89.4,36,84,42.3,81.5,49.9
					c-2.4,7.4-1.6,15.5,1.6,22.5c3.6,7.9,10.3,14.5,18.6,17.3c0.9,0.3,1.3-1.1,0.4-1.4c-14-4.8-23.1-21-19.8-35.5
					c3.5-15.4,18.9-25.2,33.8-27c8.9-1.1,19.3,0.2,25.6,7.3C142.3,33.8,143.4,32.8,142.7,32L142.7,32z"/>
			</g>
		</g>
		<g style="clip-path:url(#SVGID_00000159468142784066869070000008362881074670652839_);">
			<g>
				<path class="st3" d="M35.2,135.7c-1.5-1.7-0.7-4.6,0.2-6.4c0.8-1.6,2.7-4.1,4.8-3.5c1.9,0.5,3,3,3.4,4.8
					c0.4,1.6,0.6,4.5-1.1,5.5c-1.1,0.6-2.6,0.7-3.8,0.6C37.6,136.6,36,136.5,35.2,135.7c-0.7-0.7-1.7,0.4-1.1,1.1
					c0.9,1,2.5,1.2,3.7,1.4c1.5,0.1,3.1,0.1,4.5-0.4c2.7-0.9,3.2-4,2.9-6.5c-0.3-2.5-1.5-5.5-3.9-6.6c-2.7-1.3-5.3,0.9-6.7,3
					c-1.6,2.5-2.7,6.6-0.5,9.2C34.8,137.5,35.9,136.4,35.2,135.7z"/>
			</g>
		</g>
		<g style="clip-path:url(#SVGID_00000159468142784066869070000008362881074670652839_);">
			<path class="st14" d="M576.7,73.2c-2.8-3,0.5-10.7,4.6-11.3c4.2-0.6,7.1,8.4,4.1,11.4C583.8,74.8,578.1,74.8,576.7,73.2z"/>
		</g>
		<g style="clip-path:url(#SVGID_00000159468142784066869070000008362881074670652839_);">
			<g>
				<path class="st3" d="M-5-13.7c-7.1,5-10.3,14-9.3,22.5c1.1,9.2,7.1,16.6,15.5,20.3c8.6,3.8,18.5,3.7,27.1-0.2
					c9.1-4.1,16.3-12,20.5-21c3.7-7.8,5.8-20.2-3.7-24.8C36.4-21,25.2-17,19-10.4C15.9-7,13.8-2.8,13.4,1.7
					c-0.4,4.3,1.1,8.4,3.6,11.8c5.2,6.8,14.8,10.1,22.3,4.9c4.3-3,7.7-7.7,10.6-12.1c3.1-4.7,5.5-9.8,6.8-15.2
					c2.2-9.4,0.4-19.9-6.3-27.1c-1.6-1.7-3.4-3.1-5.4-4.3c-0.8-0.5-1.6,0.8-0.8,1.3c7.8,4.4,11.9,13.5,11.9,22.2
					C56.2-6.5,51,3.2,44.7,11c-2.9,3.6-6.3,7.4-11.1,8.3c-3.8,0.8-7.7-0.5-10.9-2.6c-3.3-2.2-5.9-5.5-7.1-9.3
					c-1.3-4-0.6-8.4,1.3-12.1c4-7.8,13.1-12.8,21.8-12.3c4.8,0.3,9.4,2.6,11,7.4c1.4,4.1,0.7,8.8-0.6,12.8
					c-2.9,8.6-8.9,16.4-16.4,21.5c-7.4,5-16.5,6.9-25.3,4.9c-8.2-1.9-15.9-7.3-18.9-15.4c-2.7-7.3-1.9-16.2,2.9-22.5
					c1.2-1.6,2.7-3,4.3-4.1C-3.5-12.9-4.2-14.2-5-13.7L-5-13.7z"/>
			</g>
		</g>
		<g style="clip-path:url(#SVGID_00000159468142784066869070000008362881074670652839_);">
			<g>
				<path class="st3" d="M721.9,413.6c-11.2-8.9-20.6-20.7-25.8-34.1c-2.5-6.5-4.1-13.3-4.3-20.3c-0.1-3.4,0.2-6.9,0.9-10.3
					c0.6-3,1.4-6.1,2.9-8.8c2.6-4.6,7.2-7.9,11.7-10.4c4.5-2.4,9.4-4.2,14.3-5.5c1.7-0.4,3.5-0.8,5.3-1c2.3-0.3,4.6-0.1,6.9,0.1
					c6.6,0.4,13.2,1.6,19.6,3.6c12.3,3.9,23.5,10.7,33.1,19.3c10,9,18.3,19.7,25.4,31.2c4,6.4,8.1,13.1,10.7,20.2
					c2.6,7.1,2.9,15.2-0.6,22.1c-5.1,10.3-16.8,17.6-28.3,17.3c-10.2-0.3-20.5-2.5-30.4-5.1c-11.9-3.2-23.9-7.3-34.6-13.7
					C726.4,416.8,724.1,415.3,721.9,413.6c-0.8-0.6-1.8,0.5-1.1,1.1c9.8,7.7,21.8,12.5,33.5,16.2c11.1,3.5,22.7,6.2,34.3,7.4
					c3.5,0.3,7.1,0.6,10.5,0c7-1.2,13.6-4.9,18.5-9.9c5.2-5.2,8.2-11.9,8.4-19.3c0.2-7.9-3.1-15.1-6.8-21.9
					c-6.9-12.6-14.9-24.7-24.8-35.2c-9.1-9.6-19.8-17.8-31.9-23.2c-6.1-2.7-12.5-4.7-19.1-5.8c-3.4-0.6-6.9-1-10.4-1.2
					c-2.2-0.1-4.4-0.2-6.6,0.1c-4.4,0.6-8.8,1.9-13,3.5c-5.1,2-10.2,4.6-14.3,8.3c-2,1.8-3.7,3.8-5,6.1c-1.5,2.8-2.3,5.9-2.9,9
					c-1.4,6.9-1.1,14,0.3,20.9c3,14.4,11.1,27.5,21.3,37.9c2.5,2.6,5.2,5,8,7.2C721.6,415.3,722.7,414.2,721.9,413.6z"/>
			</g>
		</g>
		<g style="clip-path:url(#SVGID_00000159468142784066869070000008362881074670652839_);">
			<g>
				<path class="st4" d="M759.5,270.4c-8.4,6.2-19.9,6.1-29,1.6c-9.6-4.8-15.9-14.4-18.8-24.4c-3.4-11.8-2.4-24.3,0.2-36.2
					c2.7-12.2,6.6-24.3,10.8-36c4.3-11.8,9.1-23.4,14.6-34.7c5.3-11,11-22,17.6-32.4c0.7-1,1.6-2.3,3-2.2c1.1,0.1,1.9,1.1,2.4,2
					c1.4,2.3,1.6,5.2,2.1,7.8c1.1,6.6,2.1,13.1,2.9,19.7c1.6,13.1,2.7,26.2,3.2,39.4c1,26.3-0.3,52.8-3.8,78.9
					c-0.4,3.2-0.9,6.4-1.4,9.6c-0.1,0.9,1.3,1.4,1.4,0.4c4.3-27.2,6.1-54.8,5.4-82.4c-0.3-13.8-1.3-27.6-2.8-41.4
					c-0.8-6.7-1.7-13.5-2.7-20.1c-0.5-3.2-0.8-6.6-1.7-9.7c-0.5-1.9-1.5-4.2-3.3-5.2c-1.9-1.1-3.9-0.2-5.1,1.4
					c-1.9,2.4-3.3,5.2-4.8,7.8c-3.2,5.6-6.3,11.3-9.3,17c-5.9,11.5-11.2,23.3-15.9,35.3c-4.7,12.2-8.9,24.7-12.2,37.3
					c-3.3,12.4-5.5,25.5-3.2,38.4c1.9,10.6,7,21.1,15.7,27.8c8,6.2,19.4,8.6,29.1,5.2c2.4-0.8,4.6-2,6.6-3.5
					C761,271.1,760.3,269.8,759.5,270.4L759.5,270.4z"/>
			</g>
		</g>
		<g style="clip-path:url(#SVGID_00000159468142784066869070000008362881074670652839_);">
			<g>
				<g>
					<path class="st10" d="M679.7,346.7c-1.5-1.4-3-2.9-4.5-4.3c-0.3-0.2-0.5-0.5-0.8-0.7c-0.3-0.3-0.8-0.3-1.1,0
						c-0.3,0.3-0.3,0.8,0,1.1c0.9,0.8,1.8,1.6,2.6,2.4c0.9,0.8,1.8,1.7,2.6,2.5c0.3,0.3,0.8,0.3,1.1,0
						C680,347.5,680,347,679.7,346.7L679.7,346.7z"/>
				</g>
			</g>
			<g>
				<g>
					<path class="st10" d="M665.3,310.5c-1.3-1.2-2.6-2.5-3.9-3.7c-0.3-0.3-0.8-0.3-1.1,0c-0.3,0.3-0.3,0.8,0,1.1
						c1.3,1.2,2.6,2.5,3.9,3.7c0.3,0.3,0.8,0.3,1.1,0C665.6,311.2,665.6,310.8,665.3,310.5L665.3,310.5z"/>
				</g>
			</g>
			<g>
				<g>
					<path class="st10" d="M667.4,327.1c-1.3-1.3-2.6-2.5-3.9-3.8c-0.3-0.3-0.8-0.3-1.1,0c-0.3,0.3-0.3,0.8,0,1.1
						c1.3,1.3,2.6,2.5,3.9,3.8c0.3,0.3,0.8,0.3,1.1,0C667.7,327.8,667.7,327.3,667.4,327.1L667.4,327.1z"/>
				</g>
			</g>
			<g>
				<g>
					<path class="st10" d="M693.3,350.8c-1.3-1.2-2.6-2.5-3.9-3.7c-0.3-0.3-0.8-0.3-1.1,0c-0.3,0.3-0.3,0.8,0,1.1
						c1.3,1.2,2.6,2.5,3.9,3.7c0.3,0.3,0.8,0.3,1.1,0C693.6,351.5,693.7,351.1,693.3,350.8L693.3,350.8z"/>
				</g>
			</g>
			<g>
				<g>
					<path class="st10" d="M695.5,367.3c-1.3-1.3-2.6-2.5-3.9-3.8c-0.3-0.3-0.8-0.3-1.1,0c-0.3,0.3-0.3,0.8,0,1.1
						c1.3,1.3,2.6,2.5,3.9,3.8c0.3,0.3,0.8,0.3,1.1,0C695.7,368.1,695.8,367.6,695.5,367.3L695.5,367.3z"/>
				</g>
			</g>
		</g>
		<g style="clip-path:url(#SVGID_00000159468142784066869070000008362881074670652839_);">
			<g>
				<g>
					<path class="st10" d="M42.7,440.7c-1.5-1.4-3-2.9-4.5-4.3c-0.3-0.2-0.5-0.5-0.8-0.7c-0.3-0.3-0.8-0.3-1.1,0
						c-0.3,0.3-0.3,0.8,0,1.1c0.9,0.8,1.8,1.6,2.6,2.4c0.9,0.8,1.8,1.7,2.6,2.5c0.3,0.3,0.8,0.3,1.1,0C43,441.5,43,441,42.7,440.7
						L42.7,440.7z"/>
				</g>
			</g>
			<g>
				<g>
					<path class="st10" d="M28.3,404.5c-1.3-1.2-2.6-2.5-3.9-3.7c-0.3-0.3-0.8-0.3-1.1,0c-0.3,0.3-0.3,0.8,0,1.1
						c1.3,1.2,2.6,2.5,3.9,3.7c0.3,0.3,0.8,0.3,1.1,0C28.6,405.2,28.6,404.8,28.3,404.5L28.3,404.5z"/>
				</g>
			</g>
			<g>
				<g>
					<path class="st10" d="M30.4,421.1c-1.3-1.3-2.6-2.5-3.9-3.8c-0.3-0.3-0.8-0.3-1.1,0c-0.3,0.3-0.3,0.8,0,1.1
						c1.3,1.3,2.6,2.5,3.9,3.8c0.3,0.3,0.8,0.3,1.1,0C30.7,421.8,30.7,421.3,30.4,421.1L30.4,421.1z"/>
				</g>
			</g>
			<g>
				<g>
					<path class="st10" d="M56.3,444.8c-1.3-1.2-2.6-2.5-3.9-3.7c-0.3-0.3-0.8-0.3-1.1,0c-0.3,0.3-0.3,0.8,0,1.1
						c1.3,1.2,2.6,2.5,3.9,3.7c0.3,0.3,0.8,0.3,1.1,0C56.6,445.5,56.7,445.1,56.3,444.8L56.3,444.8z"/>
				</g>
			</g>
			<g>
				<g>
					<path class="st10" d="M58.5,461.3c-1.3-1.3-2.6-2.5-3.9-3.8c-0.3-0.3-0.8-0.3-1.1,0c-0.3,0.3-0.3,0.8,0,1.1
						c1.3,1.3,2.6,2.5,3.9,3.8c0.3,0.3,0.8,0.3,1.1,0C58.7,462.1,58.8,461.6,58.5,461.3L58.5,461.3z"/>
				</g>
			</g>
		</g>
		<path style="opacity:0.38;clip-path:url(#SVGID_00000159468142784066869070000008362881074670652839_);fill:#FFE4DD;" d="
			M117.9,28.6c-38.4,4.4-51,77,40,63S178.9,21.6,117.9,28.6z"/>
	</g>
</g>
</svg>
